<svg xmlns="http://www.w3.org/2000/svg" viewBox="0 0 118.601 120.865" height="456.813" width="448.256" xmlns:v="https://vecta.io/nano"><g stroke="#9b9a91" stroke-width="4.066"><path d="M38.32 2.033c-9.624 0-18.853 3.863-25.658 10.74S2.033 28.973 2.033 38.697c0 11.044 4.927 21.5 13.412 28.46l-7.74 14.723 14.702-10.233c4.956 2.443 10.397 3.712 15.91 3.712 20.04 0 36.285-16.415 36.286-36.663 0-9.724-3.823-19.05-10.628-25.925S47.943 2.033 38.32 2.033z" fill="#f6cb1f"/><path d="M80.197 35.5c-20.007.048-36.2 16.448-36.2 36.663 0 9.724 3.823 19.05 10.628 25.925s16.034 10.74 25.658 10.74a35.95 35.95 0 0 0 12.487-2.24l12.707 9.803-1.536-16.428c8.016-6.965 12.628-17.117 12.628-27.8 0-20.25-16.246-36.663-36.286-36.663h-.085z" fill="#3eab35"/></g><g fill="none" stroke="#fff" stroke-linecap="round" stroke-linejoin="round"><path d="M57.293 74.358l16.303 15.77 29.934-29.934" stroke-width="7.465"/><path d="M26.428 29.75c.283-3.496 5.072-9.07 10.11-9.26 5.008-.19 7.182.283 10.205 4.063s.945 6.898.945 6.898-.905 2.146-3.024 4.252c-4.103 4.078-2.08 2.457-5.764 6.426-3 3.23-1.323 3.59-1.323 3.59" stroke-width="5.765"/></g><path d="M35.638 53.2h4.05v3.62h-4.05z" fill="#fff" stroke="#fff" stroke-width="3.092"/></svg>